<svg aria-hidden="true" xmlns="http://www.w3.org/2000/svg" xml:space="preserve" viewBox="0 0 1000 1000"><path fill="rgb(255, 255, 255, 1)" d="M309.7 486.8H308.4c-5.3 0-15.9-.8-27-6.4-4.9-2.4-9.2-5.6-15.9-10.6-7.4-5.5-10.7-7.8-12.3-8.7-3.5-1-7.2-2-9.5-2h-.2c-12 5.8-26.2 11.9-41.6 11.9-12.5 0-24-4-33.3-11.5-16.6-13.5-31.3-30.9-25.7-67.3 1.7-11.2 4.3-24.8 6.9-38 2.4-12.3 4.6-23.9 5.6-30.8 1.7-12.5 1.7-15.3 1.4-37.5V283c-.4-32.3.3-69.2 13.2-98.9 15.6-36 36.9-60.5 65.3-74.9 28-14.1 63-15.2 73-15.2h1.4c10 0 45 1.1 72.9 15.2 28.7 14.5 49.4 38.3 65.2 74.9 12.8 29.7 13.5 66.7 13.2 98.9v2.5c-.3 22.4-.3 25.3 1.4 37.9 1 6.9 3.2 18.5 5.6 30.8 2.6 13.2 5.2 26.9 6.9 38.1 5.5 36.4-9.1 53.9-25.7 67.3-9.4 7.6-20.9 11.5-33.3 11.5-15.5 0-29.6-6.1-41.6-11.9h-.2c-2.3 0-6 1-9.5 2-1.5.9-4.9 3.2-12.2 8.6-6.7 5-11 8.2-15.9 10.6-11.1 5.5-21.6 6.4-26.8 6.4zm-.7-40h.6c1.4 0 5.1-.2 9-2.2 1.9-1 6-4 9.8-6.9 12.7-9.5 18-12.8 23-14.4l.7-.2c6-1.8 13.5-4 21.9-4 6.2 0 12 1.3 17.2 3.8 8.5 4.1 17.4 8.1 24.6 8.1 4.4 0 6.8-1.5 8.2-2.6 8.8-7.1 14.2-11.5 11.3-30.2-1.6-10.4-4.1-23.6-6.6-36.4-2.5-12.8-4.8-25-5.9-32.9-2.1-15.6-2.1-21-1.8-43.8v-2.5c.3-28.2-.1-60.1-9.9-82.6-11.9-27.5-26.7-45-46.6-55.1-21-10.6-51.4-10.9-54.8-10.9h-1.4c-3.4 0-34 .3-55 10.9-19.7 10-35 28-46.7 55.1-9.8 22.6-10.2 54.5-9.9 82.6v2.9c.3 22.6.3 28-1.8 43.4-1.1 8-3.5 20.1-5.9 32.9-2.5 12.9-5.1 26.1-6.6 36.5-2.8 18.8 2.5 23.1 11.3 30.3 1.4 1.1 3.8 2.6 8.2 2.6 7.2 0 16.1-4 24.6-8.1 5.2-2.5 11-3.8 17.2-3.8 8.4 0 15.9 2.2 21.9 4l.7.2c5 1.6 10.4 5 23.1 14.5 3.9 2.9 7.9 5.9 9.8 6.9 3.9 1.9 7.7 2.2 9.1 2.2l.7-.3z"></path><path fill="rgb(var(--primary-color))" d="M243.8 376.1c14.2 0 25.7 3.4 33.3 5.6l1.3.4c9.1 2.9 17 7.6 25.9 13.9 2.8 2 6.6 2 9.4 0 8.9-6.3 16.8-11 25.8-13.9l1.3-.4c7.6-2.3 19.1-5.7 33.3-5.7 2.3 0 4.5.1 6.7.3 5.4.4 9.8-4.3 8.7-9.6 0-.1 0-.2-.1-.3-2.6-13.4-5.1-26.1-6.3-35.2-2.5-18.5-2.5-25.7-2.2-49.7V279c.2-17.4.6-49.7-6.6-66.3-8-18.4-16.8-29.6-27.9-35.2-9-4.5-26.8-6.6-36.7-6.6h-1.6c-9.9 0-27.8 2.1-36.8 6.6-11 5.6-20.2 17.1-28 35.2-7.2 16.6-6.8 48.9-6.6 66.3v3c.3 23.8.3 30.9-2.2 49.3-1.3 9.1-3.7 21.7-6.3 35.1v.1c0 .1 0 .2-.1.4-1 5.3 3.3 10.1 8.7 9.6 2.4-.3 4.7-.4 7-.4zM625.2 376.1c14.2 0 25.7 3.4 33.3 5.6l1.3.4c9.1 2.9 17 7.6 25.9 13.9 2.8 2 6.6 2 9.4 0 8.9-6.3 16.8-11 25.8-13.9l1.3-.4c7.6-2.3 19.1-5.7 33.3-5.7 2.3 0 4.5.1 6.7.3 5.4.4 9.8-4.3 8.7-9.6 0-.1 0-.2-.1-.3-2.6-13.4-5.1-26.1-6.3-35.2-2.5-18.5-2.5-25.7-2.2-49.7V279c.2-17.4.6-49.7-6.6-66.3-8-18.4-16.8-29.6-27.9-35.2-9-4.5-26.8-6.6-36.7-6.6h-1.6c-9.9 0-27.8 2.1-36.8 6.6-11 5.6-20.2 17.1-28 35.2-7.2 16.6-6.8 48.9-6.6 66.3v3c.3 23.8.3 30.9-2.2 49.3-1.3 9.1-3.7 21.7-6.3 35.1v.1c0 .1 0 .2-.1.4-1 5.3 3.3 10.1 8.7 9.6 2.5-.3 4.7-.4 7-.4zM243.8 802.3c14.2 0 25.7 3.4 33.3 5.6l1.3.4c9.1 2.9 17 7.6 25.9 13.9 2.8 2 6.6 2 9.4 0 8.9-6.3 16.8-11 25.8-13.9l1.3-.4c7.6-2.3 19.1-5.7 33.3-5.7 2.3 0 4.5.1 6.7.3 5.4.4 9.8-4.3 8.7-9.6 0-.1 0-.2-.1-.3-2.6-13.4-5.1-26.1-6.3-35.2-2.5-18.5-2.5-25.7-2.2-49.7v-2.5c.2-17.4.6-49.7-6.6-66.3-8-18.4-16.8-29.6-27.9-35.2-9-4.5-26.8-6.6-36.7-6.6h-1.6c-9.9 0-27.8 2.1-36.8 6.6-11 5.6-20.2 17.1-28 35.2-7.2 16.6-6.8 48.9-6.6 66.3v3c.3 23.8.3 30.9-2.2 49.3-1.3 9.1-3.7 21.7-6.3 35.1v.1c0 .1 0 .2-.1.4-1 5.3 3.3 10.1 8.7 9.6 2.4-.3 4.7-.4 7-.4zM625.2 802.3c14.2 0 25.7 3.4 33.3 5.6l1.3.4c9.1 2.9 17 7.6 25.9 13.9 2.8 2 6.6 2 9.4 0 8.9-6.3 16.8-11 25.8-13.9l1.3-.4c7.6-2.3 19.1-5.7 33.3-5.7 2.3 0 4.5.1 6.7.3 5.4.4 9.8-4.3 8.7-9.6 0-.1 0-.2-.1-.3-2.6-13.4-5.1-26.1-6.3-35.2-2.5-18.5-2.5-25.7-2.2-49.7v-2.5c.2-17.4.6-49.7-6.6-66.3-8-18.4-16.8-29.6-27.9-35.2-9-4.5-26.8-6.6-36.7-6.6h-1.6c-9.9 0-27.8 2.1-36.8 6.6-11 5.6-20.2 17.1-28 35.2-7.2 16.6-6.8 48.9-6.6 66.3v3c.3 23.8.3 30.9-2.2 49.3-1.3 9.1-3.7 21.7-6.3 35.1v.1c0 .1 0 .2-.1.4-1 5.3 3.3 10.1 8.7 9.6 2.5-.3 4.7-.4 7-.4z"></path><path fill="rgb(255, 255, 255, 1)" d="M691.1 486.8h-.6c-5 .1-16-.6-27.6-6.4-4.9-2.4-9.2-5.6-15.9-10.6-7.4-5.5-10.7-7.8-12.3-8.7-3.4-1-7.1-2-9.5-2h-.2c-12 5.8-26.1 11.9-41.6 11.9-12.5 0-24-4-33.3-11.5-16.6-13.5-31.3-30.9-25.7-67.4 1.7-11.2 4.4-24.9 6.9-38.1 2.4-12.3 4.6-23.9 5.6-30.8 1.7-12.5 1.7-15.4 1.4-37.5v-2.9c-.4-32.2.3-69.2 13.2-98.9 15.6-36 36.9-60.5 65.3-74.9 28-14.1 63-15.2 73-15.2h1.4c10 0 45 1.1 72.9 15.2 28.7 14.5 49.4 38.3 65.2 74.9 12.8 29.7 13.5 66.7 13.2 98.9v2.5c-.3 22.4-.3 25.3 1.4 37.9.9 6.9 3.2 18.5 5.6 30.7v.1c2.6 13.2 5.2 26.8 6.9 38 5.5 36.4-9.1 53.9-25.7 67.3-9.4 7.6-20.9 11.5-33.4 11.5-15.5 0-29.6-6.1-41.6-11.9h-.2c-2.3 0-6 1-9.5 2-1.5.9-4.9 3.2-12.2 8.6-6.7 5-11 8.2-15.9 10.6-11 5.8-21.5 6.7-26.8 6.7zm-.6-40h.6c1.4 0 5.1-.2 9-2.2 1.9-1 6-4 9.8-6.9 12.7-9.5 18-12.8 23-14.4l.7-.2c6-1.8 13.5-4 21.9-4 6.2 0 12 1.3 17.2 3.8 8.5 4.1 17.4 8.1 24.6 8.1 3.4 0 5.9-.8 8.2-2.6 8.8-7.1 14.2-11.5 11.3-30.2-1.6-10.4-4.1-23.6-6.6-36.4l19.6-3.9-19.6 3.8c-2.5-12.8-4.8-24.9-5.9-32.9-2.1-15.5-2.1-21-1.8-43.8v-2.5c.3-28.2-.1-60.1-9.9-82.6-11.9-27.5-26.7-45-46.6-55.1-21-10.6-51.4-10.9-54.8-10.9h-1.4c-3.4 0-34 .3-55 10.9-19.7 10-35 28-46.7 55.1-9.8 22.6-10.2 54.5-9.9 82.6v2.9c.3 22.6.3 28-1.8 43.4-1.1 8-3.5 20.1-5.9 32.9-2.5 12.8-5.1 26.1-6.6 36.5-2.8 18.8 2.5 23.1 11.3 30.3 1.4 1.1 3.8 2.6 8.2 2.6 7.2 0 16.1-4 24.6-8.1 5.2-2.5 11-3.8 17.2-3.8 8.4 0 15.9 2.2 21.9 4l.7.2c5 1.6 10.4 5 23.1 14.4 3.9 2.9 7.9 5.9 9.8 6.9 3.9 2 7.7 2.2 9.1 2.2l.7-.1zM691.1 907c-.2 0-.4-.1-.7-.1h-.7c-5.3 0-15.9-.9-27-6.4-4.9-2.4-9.2-5.6-15.9-10.6-7.4-5.5-10.7-7.8-12.3-8.7-3.4-1-7.1-2.1-9.5-2.1h-.2c-12 5.8-26.2 11.9-41.6 11.9-12.5 0-24-4-33.3-11.5-16.6-13.5-31.3-30.9-25.7-67.4 1.7-11.2 4.4-24.9 6.9-38.1 2.4-12.3 4.6-23.9 5.6-30.8 1.7-12.5 1.7-15.4 1.4-37.5v-2.9c-.4-32.2.3-69.2 13.2-98.9 15.6-36 36.9-60.5 65.3-74.9 28-14.1 63-15.2 73-15.2h1.4c10 0 45 1.1 72.9 15.3 28.7 14.5 49.4 38.3 65.2 74.9 12.8 29.7 13.5 66.7 13.2 98.9v2.5c-.3 22.4-.3 25.3 1.4 37.9.9 6.9 3.2 18.5 5.6 30.7v.2c2.6 13.2 5.2 26.8 6.9 38 5.5 36.4-9.1 53.9-25.7 67.3-9.4 7.6-20.9 11.5-33.4 11.5-15.5 0-29.6-6.1-41.6-11.9h-.2c-2.3 0-6 1-9.5 2-1.5.9-4.9 3.2-12.2 8.6-6.7 5-11 8.3-15.9 10.7-10.8 5.7-21.3 6.6-26.6 6.6zm-65.9-67.9c8.4 0 15.9 2.2 21.9 4l.7.2c5 1.6 10.4 5 23.2 14.5 3.9 2.9 7.9 5.9 9.8 6.9 3.9 1.9 7.7 2.2 9.1 2.2H691.2c1.4 0 5.1-.2 9-2.2 1.9-1 6-4 9.9-6.9 12.7-9.5 18-12.8 23-14.4l.6-.2c6-1.8 13.5-4 21.9-4 6.2 0 12 1.3 17.2 3.8 8.5 4.1 17.4 8.1 24.6 8.1 3.4 0 5.9-.8 8.2-2.6 8.8-7.1 14.2-11.5 11.3-30.2-1.6-10.4-4.1-23.6-6.6-36.3v-.1c-2.5-12.9-4.8-25-5.9-33-2.1-15.5-2.1-21-1.8-43.8v-2.5c.3-28.2-.1-60.1-9.9-82.6-11.9-27.5-26.7-45-46.6-55.1-21-10.6-51.4-10.9-54.8-10.9h-1.5c-3.4 0-34 .3-55 10.9-19.7 10-35 28-46.7 55.1-9.8 22.6-10.2 54.5-9.9 82.6v2.9c.3 22.6.3 28-1.8 43.4-1.1 8-3.5 20.1-5.9 32.9-2.5 12.9-5.1 26.1-6.6 36.5-2.8 18.8 2.5 23.1 11.3 30.3 1.4 1.1 3.8 2.6 8.2 2.6 7.2 0 16.1-4 24.6-8.1 5.2-2.7 11-4 17.2-4zM309.7 907c-.2 0-.4-.1-.7-.1h-.7c-5.3 0-15.9-.9-27-6.4-4.9-2.4-9.2-5.6-15.9-10.6-7.4-5.5-10.7-7.8-12.3-8.7-3.4-1-7.1-2.1-9.5-2.1h-.2c-12 5.8-26.2 11.9-41.6 11.9-12.5 0-24-4-33.3-11.5-16.6-13.5-31.3-30.9-25.7-67.4 1.7-11.2 4.3-24.8 6.9-38 2.4-12.3 4.6-23.9 5.6-30.8 1.7-12.5 1.7-15.3 1.4-37.5v-2.9c-.4-32.3.3-69.2 13.2-98.9 15.6-36 36.9-60.5 65.3-74.9 28-14.1 63-15.2 73-15.2h1.4c10 0 45 1.1 72.9 15.3 28.7 14.5 49.4 38.3 65.2 74.9 12.8 29.7 13.5 66.7 13.2 98.9v2.5c-.3 22.4-.3 25.3 1.4 37.9 1 6.9 3.2 18.5 5.6 30.8 2.6 13.2 5.2 26.9 6.9 38.1 5.5 36.4-9.1 53.9-25.7 67.3-9.4 7.6-20.9 11.5-33.3 11.5-15.5 0-29.6-6.1-41.6-11.9h-.2c-2.3 0-6 1-9.5 2-1.5.9-4.9 3.2-12.2 8.6-6.7 5-11 8.3-15.9 10.7-10.9 5.6-21.4 6.5-26.7 6.5zm-65.9-67.9c8.4 0 15.9 2.2 21.9 4l.7.2c5 1.6 10.4 5 23.2 14.5 3.9 2.9 7.9 5.9 9.8 6.9 3.9 1.9 7.7 2.2 9.1 2.2H309.8c1.4 0 5.1-.2 9-2.2 1.9-1 6-4 9.8-6.9 12.7-9.5 18-12.8 23-14.4l.6-.2c6.1-1.8 13.5-4 21.9-4 6.2 0 12 1.3 17.2 3.8 8.5 4.1 17.4 8.1 24.6 8.1 4.4 0 6.8-1.5 8.2-2.6 8.8-7.1 14.2-11.5 11.3-30.2-1.6-10.4-4.1-23.6-6.6-36.4-2.5-12.8-4.8-25-5.9-32.9-2.1-15.6-2.1-21-1.8-43.8v-2.5c.3-28.2-.1-60.1-9.9-82.6-11.9-27.5-26.7-45-46.6-55.1-21-10.6-51.4-10.9-54.8-10.9h-1.5c-3.4 0-34 .3-55 10.9-19.7 10-35 28-46.7 55.1-9.8 22.6-10.2 54.5-9.9 82.6v2.9c.3 22.6.3 28-1.8 43.4-1.1 8-3.5 20.1-5.9 32.9-2.5 12.9-5.1 26.1-6.6 36.5-2.8 18.8 2.5 23.1 11.3 30.3 1.4 1.1 3.8 2.6 8.2 2.6 7.2 0 16.1-4 24.6-8.1 5.3-2.8 11.1-4.1 17.3-4.1z"></path></svg>