<svg aria-hidden="true" xmlns="http://www.w3.org/2000/svg" xml:space="preserve" viewBox="0 0 1000 1000"><path fill="rgb(0, 0, 0, 1)" d="M360.8 776.2c36.1 0 66.8 12.7 91.3 37.8 16.5 16.9 33.5 23.6 43.2 26.1 1.8.5 6.2.7 8.9-.1 8.5-2.7 28-10.4 43.3-26.1 24.5-25 55.2-37.7 91.2-37.7 38.8 0 73.5 15.3 96.5 25.5 2.2 1 8.4 3.7 10.9 4.7.2.1.3.1.5.1.9.2 2.1.5 3.3.8.5.1 1.1 0 1.7-.1 1.2-.3 2.2-1 3.1-1.8 8.9-8.2 10.1-10.8 9.6-25.7-.3-9.1-8.3-48.8-13.1-72.5-9.6-47.7-19.5-96.9-20.2-126.2-.4-15.1-.3-34.5-.2-57 .2-42.5.5-95.4-2.9-127.7-5.5-51.9-19.8-100.5-38.3-130-23.7-38-50.4-61.4-86.3-75.9-35.8-14.5-84.4-15.6-98.4-15.6h-10.4c-14 0-62.7 1.1-98.4 15.6-36 14.5-62.6 38-86.3 75.9-18.4 29.5-33.2 79.3-38.6 130-3.1 28.8-4.3 78.7-3.2 127.2v.6c0 8.7.1 16.8.2 24.6.1 12.3.2 22.9 0 32.2-.7 27.9-9.1 71.7-20 126.1-4.1 20.5-12.6 63-13 72.5-.5 14.8.7 17.5 9.7 25.7.9.8 2 1.5 3.1 1.8.6.2 1.2.3 1.7.2 1.2-.3 2.4-.6 3.4-.8.2 0 .3-.1.4-.1 2.5-1 8.7-3.7 10.9-4.7 22.8-10.1 57.5-25.4 96.4-25.4z"></path><path fill="rgb(255, 255, 255, 1)" d="M500.6 921h-.4c-2.3-.1-56.3-2.5-104.3-51.6-9.2-9.4-20-13.7-34.1-13.7-22 0-46.4 10.8-64.2 18.6-9.3 4.1-16.7 7.4-23.2 9-10.2 2.5-19.5 4.6-29.6 4.6-18.3 0-34.3-7.1-51.8-22.9-27.9-25.3-38.2-50.2-36.8-88.8.6-15.6 7.1-47.9 14.6-85.4 8.5-42.2 18.1-90.1 18.7-112.5.4-13.9.2-33.7.1-54.6-.3-44.5-.6-99.8 3.3-136.5 3.2-30.4 14.6-107.3 50-163.9 32.8-52.5 72.3-86.7 124.2-107.7 47.8-19.3 105.7-21.4 128.3-21.4 2.6 0 4.4 0 5.3.1h5.1c22.7 0 80.6 2.1 128.4 21.4 51.9 21 91.4 55.2 124.2 107.7 35.4 56.7 46.8 133.5 50 163.9 3.9 36.7 3.6 92 3.3 136.5-.1 20.9-.2 40.6.1 54.5.6 22.3 10.2 70.2 18.7 112.5 7.5 37.5 14 69.8 14.6 85.4 1.4 38.6-8.9 63.5-36.8 88.8-17.5 15.9-33.4 22.9-51.7 22.9-10 0-19.3-2.1-29.5-4.6-6.5-1.6-13.9-4.9-23.3-9-17.8-7.9-42.2-18.7-64.1-18.7-14.1 0-24.9 4.4-34.1 13.7-49 50.1-99.1 51.7-104.7 51.7h-.3zM361.8 815.6c24.9 0 46 8.7 62.7 25.7 34.6 35.4 71.9 39.2 76.8 39.6 4.2-.2 39.8-2.8 75.8-39.7 16.7-17.1 37.8-25.7 62.6-25.7 30.4 0 60.4 13.3 80.3 22.1 6.7 3 13.6 6 16.7 6.8 7.6 1.9 14.4 3.4 19.9 3.4 5.7 0 12.7-1.5 24.8-12.5 18.9-17.2 24.7-31.2 23.7-57.7-.4-12.3-7.2-46.2-13.8-79-9.2-46-18.8-93.5-19.4-119.3-.4-14.5-.3-33.6-.1-55.8.2-43.5.5-97.6-3.1-132.1-6.1-57.6-22.6-112.5-44.2-147-28.5-45.6-61-73.9-105.3-91.8-42.5-17.2-97.5-18.5-113.4-18.5h-10.3c-15.9 0-70.9 1.3-113.3 18.5-44.3 17.9-76.7 46.2-105.3 91.8-21.5 34.4-38 89.4-44.2 147-3.7 34.4-3.4 88.6-3.1 132 .1 22.2.2 41.3-.1 55.8-.7 25.8-10.2 73.3-19.4 119.3-6.6 32.8-13.4 66.6-13.8 79-1 26.5 4.8 40.5 23.8 57.7 12.1 11 19.1 12.6 24.9 12.6 5.5 0 12.3-1.6 19.9-3.5 3.1-.8 10-3.8 16.7-6.8 19.7-8.6 49.8-21.9 80.2-21.9z"></path></svg>