<svg width="25" height="24" viewBox="0 0 25 24" fill="none" xmlns="http://www.w3.org/2000/svg">
<path fill-rule="evenodd" clip-rule="evenodd" d="M9.15892 3.32032H16.0057C16.0768 3.32032 16.1475 3.32457 16.2178 3.33305C18.0719 4.27966 19.5892 5.74373 21.1783 8.2812V15.7225C21.1681 18.4681 18.7776 20.6874 15.8358 20.6822H9.15892C6.21671 20.6874 3.82598 18.4674 3.81641 15.7214V8.2812C3.82598 5.53515 6.21671 3.3152 9.15892 3.32032Z" stroke="white" stroke-linecap="round" stroke-linejoin="round"/>
<path d="M21.4257 8.64276H18.6211C17.5165 8.64276 16.6211 7.74733 16.6211 6.64276V3.50781" stroke="white"/>
<path d="M18.1891 11.4284C18.1891 11.599 18.1291 11.7442 18.0091 11.8643C17.9017 11.9843 17.7596 12.0443 17.5827 12.0443H16.8247H16.0761C16.0508 12.0443 16.0287 12.0538 16.0098 12.0727C15.9908 12.0854 15.9813 12.1075 15.9813 12.139V12.7265V13.314C15.9813 13.3393 15.9908 13.3614 16.0098 13.3803C16.0287 13.3993 16.0508 13.4087 16.0761 13.4087H16.6067H17.1373C17.3079 13.4087 17.4532 13.4688 17.5732 13.5888C17.6932 13.6962 17.7532 13.8383 17.7532 14.0152C17.7532 14.1857 17.6932 14.331 17.5732 14.451C17.4532 14.5711 17.3079 14.6311 17.1373 14.6311H16.6067H16.0761C16.0508 14.6311 16.0287 14.6405 16.0098 14.6595C15.9908 14.6784 15.9813 14.7006 15.9813 14.7258V15.7681V16.8104C15.9813 17.0062 15.915 17.1705 15.7824 17.3031C15.6497 17.4358 15.4886 17.5021 15.2991 17.5021C15.1033 17.5021 14.9391 17.4358 14.8064 17.3031C14.6737 17.1705 14.6074 17.0062 14.6074 16.8104V14.1194V11.4284C14.6074 11.2578 14.6674 11.1126 14.7875 10.9925C14.9075 10.8725 15.0528 10.8125 15.2233 10.8125H16.3983H17.5827C17.7596 10.8125 17.9017 10.8725 18.0091 10.9925C18.1291 11.1126 18.1891 11.2578 18.1891 11.4284Z" fill="white"/>
<path d="M12.1387 11.5042C12.1387 11.321 12.205 11.1568 12.3377 11.0115C12.4703 10.8788 12.6345 10.8125 12.8304 10.8125C13.0199 10.8125 13.181 10.8788 13.3136 11.0115C13.4463 11.1568 13.5126 11.321 13.5126 11.5042V14.1573V16.8104C13.5126 17.0062 13.4463 17.1705 13.3136 17.3031C13.181 17.4358 13.0199 17.5021 12.8304 17.5021C12.6345 17.5021 12.4703 17.4358 12.3377 17.3031C12.205 17.1705 12.1387 17.0062 12.1387 16.8104V14.1573V11.5042Z" fill="white"/>
<path d="M10.5725 13.5412C10.7431 13.5412 10.8884 13.6013 11.0084 13.7213C11.1284 13.8413 11.1884 13.9866 11.1884 14.1571V14.8204V15.4742C11.1884 15.5816 11.1821 15.6858 11.1695 15.7869C11.1569 15.8817 11.1411 15.9764 11.1221 16.0712C11.0716 16.2607 11.0053 16.4344 10.9231 16.5923C10.8347 16.7565 10.7273 16.9018 10.601 17.0282C10.4683 17.1608 10.323 17.2714 10.1651 17.3598C10.083 17.404 9.99771 17.4451 9.90928 17.483C9.82084 17.5146 9.72924 17.5398 9.63449 17.5588C9.53342 17.5841 9.42919 17.603 9.3218 17.6156C9.22073 17.6283 9.11335 17.6346 8.99964 17.6346C8.7975 17.6346 8.58904 17.6093 8.37427 17.5588C8.27952 17.5398 8.18792 17.5146 8.09948 17.483C8.01105 17.4451 7.92261 17.404 7.83417 17.3598C7.75205 17.3093 7.67625 17.2587 7.60677 17.2082C7.53728 17.1513 7.46779 17.0913 7.39831 17.0282C7.27197 16.8892 7.16774 16.7439 7.08562 16.5923C7.03509 16.5102 6.99403 16.4249 6.96244 16.3365C6.93718 16.248 6.91191 16.1596 6.88664 16.0712C6.84242 15.8943 6.82031 15.6953 6.82031 15.4742V14.1571V12.8401C6.82031 12.619 6.84242 12.4232 6.88664 12.2526C6.91191 12.1578 6.93718 12.0694 6.96244 11.9873C6.99403 11.8988 7.03509 11.8104 7.08562 11.722C7.16774 11.5704 7.27197 11.4251 7.39831 11.2861C7.46779 11.2229 7.53728 11.1661 7.60677 11.1156C7.67625 11.0587 7.75205 11.0082 7.83417 10.9639C7.9921 10.8755 8.17213 10.806 8.37427 10.7555C8.58904 10.705 8.7975 10.6797 8.99964 10.6797C9.11335 10.6797 9.22073 10.686 9.3218 10.6986C9.42919 10.7113 9.53342 10.7302 9.63449 10.7555C9.83663 10.806 10.0135 10.8755 10.1651 10.9639C10.2978 11.0334 10.4115 11.1124 10.5062 11.2008C10.5568 11.245 10.6041 11.2924 10.6484 11.343C10.6926 11.3935 10.7368 11.444 10.781 11.4946C10.901 11.6525 10.9547 11.8199 10.9421 11.9968C10.9295 12.1736 10.8505 12.3189 10.7052 12.4326C10.5662 12.54 10.3957 12.5842 10.1935 12.5653C10.0988 12.5526 10.0072 12.5274 9.91875 12.4895C9.83031 12.4453 9.75451 12.3821 9.69134 12.3C9.59659 12.1863 9.49868 12.0947 9.39761 12.0252C9.27127 11.9557 9.13861 11.921 8.99964 11.921C8.78487 11.921 8.60168 11.9968 8.45007 12.1484C8.38059 12.2179 8.32058 12.3 8.27004 12.3947C8.21951 12.4832 8.19424 12.5811 8.19424 12.6885V14.0529V15.4174C8.19424 15.569 8.21319 15.7016 8.25109 15.8153C8.26372 15.8785 8.28267 15.9353 8.30794 15.9859C8.33953 16.0301 8.37111 16.0775 8.4027 16.128C8.47218 16.2164 8.5543 16.2796 8.64905 16.3175C8.74381 16.3617 8.86067 16.3838 8.99964 16.3838C9.14493 16.3838 9.26495 16.3617 9.35971 16.3175C9.45446 16.2796 9.53658 16.2164 9.60606 16.128C9.63765 16.0775 9.66607 16.0301 9.69134 15.9859C9.72293 15.9353 9.74504 15.8785 9.75767 15.8153C9.79557 15.7016 9.81452 15.569 9.81452 15.4174V15.0952V14.773H9.63449H9.45446C9.27759 14.773 9.13546 14.713 9.02807 14.593C8.90805 14.473 8.84804 14.3277 8.84804 14.1571C8.84804 13.9866 8.90805 13.8413 9.02807 13.7213C9.13546 13.6013 9.27759 13.5412 9.45446 13.5412H9.95665H10.5725Z" fill="white"/>
</svg>
