<svg aria-hidden="true" xmlns="http://www.w3.org/2000/svg" xml:space="preserve" viewBox="0 0 1000 1000"><path fill="rgb(0, 0, 0, 1)" d="M500.7 896.6c-17.3 0-33.7-6.8-45.9-19L180.4 603.3C131.6 554.4 99.8 501.5 86 446.1c-12.5-50.3-9.3-100.7 9.3-145.8 16.3-39.4 43.6-72.8 79-96.4 36.1-24.2 78.8-37 123.4-37 49.6 0 123.9 15.8 203 88.4 78-71.6 151.6-87.1 200.7-87.1 44.8 0 87.6 12.9 123.9 37.3 35.5 23.8 63 57.4 79.4 97 18.6 44.9 21.9 95 9.6 145-13.6 55-45 107.5-93.4 155.8L546.6 877.6c-12.3 12.2-28.6 19-45.9 19zM297.7 207c-73.1 0-138 42.7-165.4 108.7-33.5 81-5 177.9 76.4 259.3L483 849.3c4.7 4.7 11 7.3 17.6 7.3 6.7 0 12.9-2.6 17.6-7.3L792.6 575c80.4-80.4 108.5-176.6 75.1-257.2-27.6-66.5-92.9-109.6-166.3-109.6-63.9 0-128.4 30.8-186.6 88.9l-14.1 14.1-14.1-14.1C427.5 238.2 362.2 207 297.7 207z"></path><path fill="rgb(255, 255, 255, 1)" d="M297.7 250.1c-28.7 0-56 8.1-78.9 23.4-22.2 14.9-39.3 35.8-49.6 60.6-12 29.1-14 62.2-5.6 95.8 10.3 41.1 34.9 81.5 73.4 119.9l249.4 249.4c7.9 7.9 20.6 7.9 28.5 0l249.4-249.4c37.9-37.9 62.2-77.7 72.3-118.4 8.2-33.3 6.2-66.2-5.8-95.2-10.4-25-27.7-46.2-50-61.2-23.1-15.5-50.5-23.7-79.3-23.7-34.1 0-87.1 11.5-146.6 66L500.8 367l-54.1-49.7c-60.7-55.6-114.5-67.2-149-67.2z"></path></svg>