<svg aria-hidden="true" xmlns="http://www.w3.org/2000/svg" xml:space="preserve" viewBox="0 0 1000 1000"><circle cx="500.3" cy="504.1" r="290.8" fill="#4EDCD8"></circle><path fill="rgb(var(--primary-color-dark))" d="M500.8 881.8c-51 0-100.4-10-147-29.7-45-19-85.3-46.2-120-80.9s-61.9-75-80.9-120c-19.7-46.6-29.7-96-29.7-147s10-100.4 29.7-147c19-45 46.2-85.3 80.9-120s75-61.9 120-80.9c46.6-19.7 96-29.7 147-29.7s100.4 10 147 29.7c45 19 85.3 46.2 120 80.9s61.9 75 80.9 120c19.7 46.6 29.7 96 29.7 147s-10 100.4-29.7 147c-19 45-46.2 85.3-80.9 120s-75 61.9-120 80.9c-46.6 19.7-96 29.7-147 29.7zm0-715.1c-186.1 0-337.5 151.4-337.5 337.5s151.4 337.5 337.5 337.5 337.5-151.4 337.5-337.5-151.4-337.5-337.5-337.5z"></path><path fill="rgb(var(--primary-color-dark))" d="M98.1 685.1c-11.8 0-22.6-.5-32.2-1.4-13.8-1.4-55.8-5.5-64.4-35.1-8.6-29.6 24.8-55.5 35.8-64 22.6-17.6 56.1-37 99.6-57.9l17.3 36.1C64 606.2 45 630.3 41.2 637.2c6.9 3.8 35.8 14.1 135.3 2.6 93.8-10.8 215.2-36.9 341.8-73.4 127.1-36.7 244-79.5 329.2-120.5 89.6-43.1 108.4-67.1 112.3-73.9-6.9-3.8-35.6-14-134.2-2.7l-4.5-39.8c47.6-5.4 86-6.7 114.4-3.9 13.7 1.4 55.5 5.5 64 35s-24.6 55.3-35.5 63.8c-22.5 17.5-55.8 36.9-99 57.7-87.1 41.9-206.2 85.5-335.4 122.8-128.7 37.1-252.4 63.7-348.3 74.7-32 3.7-59.8 5.5-83.2 5.5z"></path></svg>