<svg width="25" height="24" viewBox="0 0 25 24" fill="none" xmlns="http://www.w3.org/2000/svg">
<path fill-rule="evenodd" clip-rule="evenodd" d="M13.3554 2.08021C11.5865 1.89212 10.1686 2.09738 9.14566 2.92738C8.50495 3.44726 8.07042 4.17077 7.78883 5.07557C7.76965 5.13719 7.81644 5.19912 7.88099 5.19912C8.49605 5.19912 9.01117 4.78748 9.36821 4.28665C9.50959 4.08834 9.66657 3.92126 9.83875 3.78156C10.5236 3.22585 11.5791 2.99754 13.2391 3.17404L17.3537 3.61156C19.0137 3.78807 19.9976 4.23323 20.5503 4.92053C21.1035 5.60849 21.3301 6.66991 21.1527 8.33844L20.7132 12.4712C20.6159 13.3868 20.438 14.0981 20.184 14.6455C19.8633 15.3367 19.4919 16.0481 19.4919 16.8101C19.4919 16.868 19.5532 16.9054 19.6036 16.8769C19.7777 16.7786 19.9428 16.6666 20.0986 16.5402C21.1209 15.7107 21.6183 14.3629 21.8071 12.5875L22.2465 8.45475C22.4353 6.67935 22.2324 5.25708 21.4075 4.2312C20.582 3.20466 19.2389 2.70581 17.47 2.51773L13.3554 2.08021ZM17.2753 17.4482C17.2755 17.4482 17.2756 17.4481 17.2756 17.4479C17.2865 17.2433 17.2919 17.0307 17.2919 16.8101V16.3476C17.2919 16.3474 17.2917 16.3472 17.2915 16.3472C17.2913 16.3472 17.2912 16.3474 17.2912 16.3476V16.8132C17.2912 17.0327 17.2858 17.2442 17.275 17.4479C17.275 17.4481 17.2751 17.4482 17.2753 17.4482ZM7.38087 7.41027C7.38077 7.41121 7.38152 7.41202 7.38247 7.41198C7.5436 7.40547 7.70949 7.40224 7.8802 7.40224H8.48652C8.48732 7.40224 8.48799 7.40164 8.48807 7.40085C8.48817 7.39992 8.48745 7.39912 8.48652 7.39912H7.88099C7.70995 7.39912 7.54376 7.40235 7.38234 7.40889C7.38158 7.40893 7.38095 7.40951 7.38087 7.41027Z" fill="white"/>
<path d="M7.8565 21.8846H12.2C15.8196 21.8846 17.2674 20.4368 17.2674 16.8172V12.4737C17.2674 8.85409 15.8196 7.40625 12.2 7.40625H7.8565C4.2369 7.40625 2.78906 8.85409 2.78906 12.4737V16.8172C2.78906 20.4368 4.2369 21.8846 7.8565 21.8846Z" stroke="white" stroke-linecap="round" stroke-linejoin="round"/>
<path d="M7.85604 13.6926C8.9318 13.6926 9.80388 12.8205 9.80388 11.7447C9.80388 10.669 8.9318 9.79688 7.85604 9.79688C6.78028 9.79688 5.9082 10.669 5.9082 11.7447C5.9082 12.8205 6.78028 13.6926 7.85604 13.6926Z" stroke="white" stroke-linecap="round" stroke-linejoin="round"/>
<path d="M3.26758 19.6815L6.8365 17.2853C7.4084 16.9016 8.23366 16.9451 8.74765 17.3867L8.98654 17.5966C9.5512 18.0816 10.4633 18.0816 11.028 17.5966L14.0395 15.0122C14.6042 14.5272 15.5163 14.5272 16.0809 15.0122L17.2609 16.0257" stroke="white" stroke-linecap="round" stroke-linejoin="round"/>
</svg>
