<svg aria-hidden="true" xmlns="http://www.w3.org/2000/svg" xml:space="preserve" viewBox="0 0 1000 1000"><circle cx="500.3" cy="499.1" r="290.8" fill="rgb(0, 0, 0, 1)"></circle><path fill="rgb(255, 255, 255, 1)" d="M847.2 351.9c-19-44.8-46.1-85.1-80.7-119.6-34.6-34.6-74.8-61.7-119.7-80.7C600.5 132 551.2 122 500.3 122c-50.8 0-100.1 10-146.5 29.6-44.8 19-85.1 46.1-119.6 80.7-34.6 34.6-61.7 74.8-80.7 119.6-19.6 46.4-29.6 95.7-29.6 146.5s10 100.1 29.6 146.5c4.3 10.1 9 20 14.1 29.7 8.1 15.2 17.1 29.8 27.2 43.8 2.1-3.7 4.2-7.5 6.5-11.5 5.3-9.3 10.5-18.5 15.6-27.4-9.5-14.8-17.9-30.5-25-46.8-18-41.2-28-86.6-28-134.3 0-185.5 150.9-336.5 336.5-336.5 185.5 0 336.5 150.9 336.5 336.5 0 185.5-150.9 336.5-336.5 336.5-48 0-93.7-10.1-135.1-28.3-18.6-8.2-36.3-18-52.9-29.2-7.8 2.7-15.7 5.4-23.6 8.1-7.9 2.7-15.5 5.2-22.7 7.6 14.8 11.8 30.5 22.5 46.9 31.9 13.2 7.6 26.8 14.3 40.9 20.3 46.4 19.6 95.7 29.6 146.5 29.6s100.1-10 146.5-29.6c44.8-19 85.1-46.1 119.7-80.7s61.7-74.8 80.7-119.6c19.6-46.4 29.6-95.7 29.6-146.5-.1-50.9-10.1-100.2-29.7-146.6z"></path><path fill="rgb(255, 255, 255, 1)" d="M365.3 806.6c-16.3 5.9-34.1 12.2-52.4 18.4-5.5 1.9-11.1 3.8-16.7 5.7-45.1 15.2-82.5 26.7-111.2 34.1-29.4 7.6-47.8 10.4-60.2 10.4-9.1 0-15-1.5-19.8-3.8-7.2-3.5-12.3-9.4-14.6-16.7-3.5-11.4-1.6-27.2 18.9-70.6 11.3-23.9 27.6-55 48.6-92.3 3.3-5.8 6.5-11.5 9.8-17.3 8.4-14.7 16.6-28.9 24.3-41.9 7.1 16.3 15.5 32 25 46.8-5.1 8.9-10.4 18.1-15.6 27.4-2.2 3.9-4.4 7.8-6.5 11.5-34.3 61.4-49.3 93.6-55.7 110.3 18.1-3 54.6-11.6 127-35.6 7.2-2.4 14.8-4.9 22.7-7.6 8-2.7 15.9-5.4 23.6-8.1 16.5 11.3 34.2 21.1 52.8 29.3z"></path><circle fill="rgb(255, 255, 255, 1)" cx="337.5" cy="499.9" r="40.3"></circle><circle fill="rgb(255, 255, 255, 1)" cx="499.6" cy="499.5" r="40.3"></circle><circle fill="rgb(255, 255, 255, 1)" cx="661.6" cy="499.5" r="40.3"></circle></svg>