<svg aria-hidden="true" xmlns="http://www.w3.org/2000/svg" xml:space="preserve" viewBox="0 0 1000 1000"><circle cx="500" cy="500" r="298" fill="rgb(var(--primary-color))"></circle><path fill="rgb(255, 255, 255, 1)" d="M320.6 334h112.2c10.5 0 20.5-9.2 20-20s-8.8-20-20-20H320.6c-10.5 0-20.5 9.2-20 20s8.8 20 20 20zM259.6 438H422.8c10.5 0 20.5-9.2 20-20s-8.8-20-20-20H259.6c-10.5 0-20.5 9.2-20 20s8.8 20 20 20zM251.6 542h179.8c10.5 0 20.5-9.2 20-20s-8.8-20-20-20H251.6c-10.5 0-20.5 9.2-20 20s8.8 20 20 20zM287.1 646h390.5c18 0 36.1.5 54.1 0h.8c10.5 0 20.5-9.2 20-20s-8.8-20-20-20H342c-18 0-36.1-.5-54.1 0h-.8c-10.5 0-20.5 9.2-20 20s8.8 20 20 20zM378.7 750h262c10.5 0 20.5-9.2 20-20s-8.8-20-20-20h-262c-10.5 0-20.5 9.2-20 20s8.8 20 20 20zM622.4 510h-23.5c-9.1 0-18-.5-27-.8.5 0 4.8.8 1.2.1-.7-.1-1.3-.2-2-.4-1.8-.3-3.5-.7-5.3-1.2-3.7-.9-7.3-2-10.9-3.4-.1 0-2.3-.7-2.5-1 .6.9 3.6 1.6 1.1.4-1.6-.8-3.2-1.5-4.8-2.3-3.3-1.7-6.6-3.6-9.7-5.7-1.5-1-2.9-2-4.3-3-2.2-1.5 2.9 2.5.9.7-.6-.6-1.4-1.1-2-1.7-2.8-2.4-5.5-5-8.1-7.7-1.2-1.3-2.4-2.6-3.5-3.9-.3-.3-1.7-1.8-1.7-2 0 .1 2.9 4 .7.9-2-2.9-4-5.8-5.8-8.8-1.8-3.1-3.3-6.2-4.9-9.4-1.5-3.1.3.6.4 1.1-.2-.8-.7-1.7-1-2.5-.7-1.9-1.4-3.8-1.9-5.7-1.1-3.5-1.9-7-2.6-10.5-.2-.9-.3-1.8-.5-2.7-.5-2.7.4 4 .1 1.2-.2-2.1-.4-4.1-.5-6.2-.5-8.3-.2-16.8-.2-25.1 0-8.2-.3-16.6.2-24.8.1-1.8.3-3.7.5-5.5.3-2.8-.7 4-.1 1.2.2-.9.3-1.8.5-2.7.7-3.8 1.6-7.5 2.8-11.1.5-1.7 1.1-3.4 1.7-5.1.3-.8.8-1.7 1-2.5-.1.5-1.9 4.2-.4 1.1 1.6-3.4 3.3-6.7 5.2-10 1.7-2.8 3.6-5.5 5.5-8.2 2.2-3.1-.7.8-.7.9 0-.2 1.4-1.7 1.7-2 1.4-1.7 2.9-3.3 4.4-4.9 2.3-2.4 4.7-4.6 7.2-6.8.7-.6 1.4-1.1 2-1.7 2-1.8-3.1 2.2-.9.7 1.6-1.1 3.2-2.3 4.8-3.4 2.9-1.9 6-3.7 9.1-5.4 1.6-.8 3.2-1.5 4.8-2.3 2.5-1.2-.6-.4-1.1.4.4-.6 2.5-1 3.1-1.2 3.4-1.2 6.8-2.3 10.3-3.1 1.8-.4 3.5-.8 5.3-1.2.9-.2 1.8-.3 2.7-.5 2.6-.5-5.2.5-.6.1 16.4-1.5 33.3-.8 49.8-.6 3.7 0 7.4.3 11.1.7 2.8.3-4-.7-1.2-.1.7.1 1.3.2 2 .3 2.2.4 4.4.9 6.6 1.4 3.5.9 6.9 2 10.3 3.2.8.3 1.7.8 2.5 1-.5-.1-4.2-1.9-1.1-.4 1.6.8 3.2 1.5 4.8 2.3 3.1 1.6 6.2 3.4 9.1 5.4 1.5 1 2.9 2 4.3 3 3.1 2.2-.8-.7-.9-.7.4 0 2.7 2.3 3 2.5 2.5 2.2 4.9 4.4 7.1 6.8 1.2 1.3 2.4 2.6 3.5 3.9.6.7 1.1 1.4 1.7 2 1.7 1.8-2.4-3.4-.3-.4 4.3 6 7.6 12.2 11 18.8 1.2 2.4-1.4-3.6-.5-1.1.3.8.6 1.7 1 2.5.6 1.7 1.2 3.4 1.7 5.1 1.1 3.7 2 7.4 2.7 11.2.1.8.2 2 .5 2.7-.2-.4-.5-4.9-.2-1.2.2 1.8.4 3.7.5 5.5.1 2 .1 4.1.2 6.1V429.4c0 2 0 4-.2 6-.1 1.8-.3 3.7-.5 5.5-.3 3.6 0-.8.2-1.2-.4 1.1-.5 2.9-.7 4-.7 3.5-1.6 7-2.7 10.5-.5 1.5-1 3-1.5 4.4-.3.8-.6 1.7-1 2.5-.9 2.3 1.8-3.8.2-.5-3.2 6.6-6.9 12.7-11.1 18.7-1.5 2.2 2.5-2.9.7-.9-.6.6-1.1 1.4-1.7 2-1.1 1.3-2.3 2.6-3.5 3.9-2.6 2.7-5.3 5.3-8.1 7.7-.3.3-1.8 1.7-2 1.7.1 0 4-2.9.9-.7-1.4 1-2.9 2-4.3 3-3.1 2.1-6.4 4-9.7 5.7-1.4.7-2.8 1.3-4.2 2-3.1 1.5.6-.3 1.1-.4-.8.2-1.7.7-2.5 1-3.8 1.4-7.6 2.6-11.6 3.5-1.8.4-3.5.8-5.3 1.1-.7.1-1.4.2-2 .3-2.7.5 4-.4 1.2-.1-3.7.6-7.6.9-11.6.9-10.5.1-20.5 9.1-20 20 .5 10.8 8.8 20.1 20 20 35.5-.2 70.3-16.2 92.6-44.1 11.3-14.1 19.9-30.3 24.1-48 2.8-12.2 3.3-24.4 3.3-36.9v-28.5c-.1-17.1-3.7-33.5-10.5-49.2-13.8-31.9-42.5-56.6-75.7-66.5-22.4-6.7-46.4-4.9-69.5-4.9-32.7 0-64.4 12.3-87.5 35.7-22.9 23.2-34.8 54.4-34.8 86.8 0 23-1.8 46.9 4.9 69.2 10.3 34.5 35.8 62.8 68.9 76.8 14.9 6.3 30.7 9.4 46.9 9.5h37.3c10.5 0 20.5-9.2 20-20-.5-10.7-8.8-19.9-20-19.9z"></path><path fill="rgb(255, 255, 255, 1)" d="M837 500c0 9.6-.4 19.1-1.1 28.7-.3 4.4-.8 8.7-1.3 13.1-.2 1.3-1.5 9-.3 2.9-.5 2.7-.8 5.4-1.2 8.1-2.9 17.8-7.2 35.4-12.8 52.5-2.8 8.5-5.8 16.8-9.2 25-.2.4-2.1 4.3-.5 1.3 1.5-3-.4.9-.6 1.3l-2.7 6c-1.8 4-3.8 8-5.7 11.9-8 15.9-17.2 31.1-27.5 45.6-2.4 3.4-4.9 6.7-7.4 10-2.8 3.7 2.8-3.5-.1.1-.5.7-1.1 1.4-1.6 2.1-1.6 2-3.3 4.1-5 6.1-5.6 6.7-11.4 13.2-17.5 19.5-6.1 6.3-12.4 12.3-18.9 18.1-3.3 2.9-6.6 5.8-9.9 8.5-1.5 1.3-3 2.5-4.6 3.7-.9.7-1.7 1.4-2.6 2-3.6 2.9 3.6-2.7-.1.1-14.2 10.7-29 20.5-44.5 29-7.9 4.4-16 8.4-24.2 12.2-1.8.8-3.6 1.6-5.5 2.4-1.3.6-3.8 2.2.5-.2-.7.4-1.7.7-2.5 1-4.5 1.9-9.1 3.6-13.7 5.3-16.9 6.1-34.2 11-51.8 14.5-4.5.9-8.9 1.7-13.4 2.4-1.9.3-5 1.4-6.8 1 .3.1 4.9-.6 1.2-.2-1.4.2-2.7.3-4.1.5-9.4 1.1-18.9 1.8-28.4 2.2-18.8.7-37.7-.1-56.4-2.3l-2.7-.3c-4.6-.6 3.6.5.6.1-2.3-.3-4.5-.7-6.8-1-4.7-.8-9.4-1.6-14.1-2.6-8.8-1.8-17.6-3.9-26.3-6.4-8.6-2.4-17.1-5.2-25.5-8.3-4.2-1.5-8.3-3.1-12.4-4.8-.8-.3-1.7-.6-2.5-1 4.8 2.7 1.1.4-.1-.1l-6-2.7c-16.4-7.5-32.2-16.3-47.2-26.2-7.1-4.7-15.1-9.4-21.4-15.2 4.2 3.9-1-.8-2.1-1.7-1.5-1.2-3-2.5-4.6-3.7-3.5-2.9-7-5.9-10.4-9-13-11.7-25.1-24.3-36.2-37.7-1.4-1.7-2.8-3.4-4.1-5.1-.7-.9-1.3-1.7-2-2.6-1.9-2.2 3 4 .3.4-2.8-3.7-5.5-7.3-8.1-11.1-5.2-7.3-10.1-14.9-14.7-22.6-4.5-7.5-8.7-15.3-12.7-23.1-1.9-3.7-3.7-7.5-5.4-11.3L190 633c-.5-1.2-2.7-4.9-.1-.1-.6-1.1-1-2.5-1.5-3.7-6.7-16.6-12.2-33.6-16.4-51-2.1-8.8-3.9-17.7-5.3-26.7-.3-1.9-1.4-4.9-1-6.8.1.9.2 1.7.3 2.6l-.3-2.7-.3-2.7c-.6-4.8-1-9.6-1.4-14.5-1.4-18.8-1.4-37.8.2-56.6.4-4.4.8-8.7 1.3-13.1.1-1.1.3-2.3.4-3.4.5-3.7-.2.9-.2 1.2-.5-2.2.9-5.8 1.2-8.1 1.5-8.9 3.3-17.8 5.4-26.6 4.3-17.6 10-34.8 16.8-51.5.8-2.1.1-3.2-.2.5 0-.6.8-1.8 1.1-2.4l2.7-6c2-4.4 4.1-8.8 6.3-13.1 4-7.8 8.3-15.5 12.8-23s9.4-14.8 14.5-21.9c2.5-3.5 4.8-7.5 7.8-10.5-.3.3-2.9 3.6-.7.9.7-.9 1.4-1.7 2-2.6 1.5-1.9 3-3.7 4.6-5.6 11.3-13.6 23.7-26.3 36.9-38 3.1-2.8 6.2-5.5 9.4-8.1 1.7-1.4 3.4-2.8 5.1-4.1.7-.5 1.4-1.1 2.1-1.6 3.1-2.5-3.5 2.6.6-.5 7.2-5.4 14.5-10.6 22-15.5 14.8-9.6 30.2-18 46.2-25.3 2-.9 4-1.8 6.1-2.7 3.2-1.4-.7.2-1.1.5 1.1-.6 2.5-1 3.7-1.5 4.1-1.7 8.3-3.3 12.4-4.8 8.4-3.1 16.9-5.8 25.5-8.2 8.9-2.5 17.9-4.6 27-6.4 4.2-.8 8.5-1.6 12.8-2.3 2.2-.4 4.5-.6 6.8-1-5.2 1-1.9.3-.5.1l4.8-.6c18.5-2.1 37.2-2.7 55.8-1.9 9.2.4 18.5 1.1 27.6 2.2 1.1.1 2.3.3 3.4.4 3 .4-5.2-.7-.6-.1 2.3.3 4.5.7 6.8 1 4.5.7 9 1.6 13.4 2.5 18 3.7 35.7 8.7 53 15.1 3.7 1.4 7.5 2.8 11.2 4.4.4.2.8.3 1.2.5 2 .8 1.6.7-1.1-.5.6 0 2 .9 2.4 1.1 2.4 1.1 4.8 2.2 7.3 3.3 8 3.7 15.8 7.7 23.5 12 7.7 4.3 15.2 8.8 22.5 13.7 7.1 4.7 15.2 9.4 21.4 15.2-4.2-4 1 .8 2.1 1.7l5.1 4.2c3.3 2.8 6.6 5.7 9.9 8.6 6.6 6 13.1 12.2 19.3 18.7 6.2 6.5 12.1 13.2 17.8 20.1 1.2 1.5 2.5 3 3.7 4.6.6.7 1.7 1.7 2 2.6-1.1-2.9-1.9-2.4-.7-.9 2.9 3.8 5.8 7.7 8.5 11.6 10.1 14.4 19.1 29.5 27 45.2 2 3.9 3.9 7.9 5.7 11.9.9 2 1.8 4 2.7 6.1.5 1.1 1.8 3-.5-1.1.6 1.1 1 2.5 1.5 3.7 3.4 8.4 6.5 17 9.3 25.7 5.6 17.4 9.8 35.2 12.6 53.3.2 1.6 2 8.7.5 2.8.5 1.9.5 4.2.8 6.1.5 4.4.9 8.7 1.3 13.1.4 8.8.8 18.2.8 27.5 0 10.5 9.2 20.5 20 20s20-8.8 20-20c-.1-77.2-24-154.1-68.8-217.1-44.8-62.8-107.2-110.7-179.7-137.4-73.6-27.1-156.2-29.7-231.5-8.3-72.6 20.6-138.9 63.6-186.8 121.8-49.9 60.6-80 134.6-86 212.9-6 77.5 13 156.7 53.3 223.1 39 64.2 97.4 116.8 165.9 147.7 73.1 33 154.8 42.2 233.4 26.2C651 854 720.3 815.3 772.5 760.5c52.4-55 88.3-125.9 99.7-201.2 3-19.7 4.7-39.4 4.8-59.3 0-10.5-9.2-20.5-20-20-10.9.5-20 8.8-20 20z"></path></svg>