<svg width="25" height="24" viewBox="0 0 25 24" fill="none" xmlns="http://www.w3.org/2000/svg">
<path d="M3.7832 4.75987C3.38086 3.79329 4.26289 2.86012 5.25514 3.19419C8.61905 4.32675 15.0161 6.76209 20.6467 10.5135C21.6004 11.149 21.6126 12.5197 20.6703 13.172C15.1071 17.0227 8.75426 19.5711 5.41096 20.7632C4.42479 21.1148 3.52635 20.1974 3.91149 19.2238C4.73883 17.1324 5.68785 15.1242 6.16033 14.1518C6.35141 13.7586 6.68792 13.4585 7.09764 13.306L9.75871 12.3155C10.1093 12.1851 10.1049 11.6876 9.75205 11.5634L7.07382 10.6203C6.66146 10.4751 6.31967 10.1809 6.12166 9.79118C5.632 8.82738 4.64751 6.83626 3.7832 4.75987Z" stroke="white" stroke-linejoin="round"/>
</svg>
