<svg xmlns="http://www.w3.org/2000/svg" viewBox="0 0 24 24">
    <path
        fill="black"
        d="M11.962 1.078a15.85 15.85 0 0 0-.613.024c-.205.012-.41.029-.614.051a10.462 10.462 0 0 0-1.216.204c-.2.047-.397.1-.592.162a7.007 7.007 0 0 0-1.127.466 5.375 5.375 0 0 0-.526.313 5.74 5.74 0 0 0-.868.711 6.468 6.468 0 0 0-.727.857 7.818 7.818 0 0 0-.828 1.477 9.063 9.063 0 0 0-.532 1.674 10.29 10.29 0 0 0-.078.389 14.56 14.56 0 0 0-.195 1.578 26.474 26.474 0 0 0-.065 1.6c-.009.535-.009 1.071-.015 1.605-.004.274-.011.547-.021.817-.01.271-.024.54-.044.809a13.757 13.757 0 0 1-.207 1.618c-.05.266-.104.531-.16.795-.055.267-.112.531-.167.794-.056.264-.11.528-.161.793-.051.264-.097.529-.137.796a8.437 8.437 0 0 0-.082.822 4.971 4.971 0 0 0 .009.543 3.389 3.389 0 0 0 .088.526 2.34 2.34 0 0 0 .189.496 2.104 2.104 0 0 0 .499.619 1.592 1.592 0 0 0 .442.266 1.265 1.265 0 0 0 .497.098c.077 0 .155-.007.233-.018.078-.011.157-.028.236-.048.079-.02.159-.044.239-.071.24-.08.483-.184.725-.28.161-.064.322-.125.482-.172a5.924 5.924 0 0 1 .577-.137A3.715 3.715 0 0 1 7.8 21.2a2.547 2.547 0 0 1 .693.096 2.695 2.695 0 0 1 .671.303c.104.063.205.13.303.2.099.07.195.143.291.216.191.146.378.294.571.427.096.067.194.129.294.187.1.057.203.108.309.152a2.195 2.195 0 0 0 .359.114c.061.014.123.026.185.036a2.36 2.36 0 0 0 .932-.042 2.87 2.87 0 0 0 .481-.164 4.033 4.033 0 0 0 .455-.235c.148-.087.295-.181.441-.277.146-.096.292-.195.44-.292.147-.097.297-.192.45-.28a4.03 4.03 0 0 1 .475-.235 2.776 2.776 0 0 1 .785-.202 2.698 2.698 0 0 1 .522.003c.078.008.155.02.232.034a4.4 4.4 0 0 1 .453.111c.149.044.296.094.442.145.146.051.29.103.433.151.215.072.436.135.656.176a2.781 2.781 0 0 0 .655.044 1.688 1.688 0 0 0 .418-.085 1.608 1.608 0 0 0 .491-.28 1.75 1.75 0 0 0 .204-.2 2.09 2.09 0 0 0 .32-.487 2.442 2.442 0 0 0 .194-.562 2.45 2.45 0 0 0 .048-.293 3.064 3.064 0 0 0 .002-.596 4.052 4.052 0 0 0-.035-.291 6.98 6.98 0 0 0-.051-.289c-.077-.385-.182-.771-.256-1.177-.069-.376-.147-.753-.222-1.133l-.108-.57a15.864 15.864 0 0 1-.16-1.051c-.092-.799-.119-1.6-.129-2.4-.004-.32-.006-.64-.008-.959a75.582 75.582 0 0 0-.011-.955 29.929 29.929 0 0 0-.034-.95c-.017-.315-.042-.63-.076-.942a12.47 12.47 0 0 0-.138-.933 11.297 11.297 0 0 0-.391-1.502 10.218 10.218 0 0 0-.442-1.092 8.738 8.738 0 0 0-.575-1.022 7.904 7.904 0 0 0-.462-.625 7.029 7.029 0 0 0-.526-.566 5.884 5.884 0 0 0-.855-.68 5.733 5.733 0 0 0-.544-.319 7.306 7.306 0 0 0-.567-.262 7.733 7.733 0 0 0-1.498-.428 9.279 9.279 0 0 0-1.879-.141Z"
        filter="url(#a)"
    />
    <filter id="a">
        <feOffset />
        <feGaussianBlur result="offset-blur" stdDeviation="1.5" />
        <feComposite
            in="SourceGraphic"
            in2="offset-blur"
            operator="out"
            result="inverse"
        />
        <feFlood flood-color="#9e9e9e" flood-opacity="1" result="color" />
        <feComposite in="color" in2="inverse" operator="in" result="shadow" />
        <feComposite in="shadow" in2="SourceGraphic" />
    </filter>
</svg>